<?xml version='1.0' encoding='UTF-8' standalone='no'?>
<!-- Created with Fritzing (http://www.fritzing.org/) -->
<svg xmlns="http://www.w3.org/2000/svg" viewBox="0 0 219.065 120.084" baseProfile="tiny" width="3.04256in" version="1.2" x="0in"  y="0in" xmlns:svg="http://www.w3.org/2000/svg" height="1.66784in">
 <g transform="matrix(-1, 0, 0, 1, 219.065, 0)">
  <g partID="57660">
   <g id="board" >
    <rect fill-opacity="0.5" id="boardoutline" width="218.489" fill="none" stroke="black" x="0.288"  stroke-width="0.5" y="0.288" height="119.508"/>
   </g>
  </g>
  <g partID="854374721">
   <g transform="translate(155.716,48.6222)">
    <g transform="matrix(0,1,-1,0,0,0)">
     <g id="copper1"  stroke-width="0">
      <g id="copper0"  stroke-width="0">
       <rect width="3.96" fill="none" stroke="black" x="2.34"  y="2.34" stroke-width="1.44" height="3.96"/>
       <circle id="connector0pin" r="1.98" fill="none" cx="4.32" cy="4.32" stroke="black"  stroke-width="1.44"/>
       <circle id="connector27pin" r="1.98" fill="none" cx="25.92" cy="4.32" stroke="black"  stroke-width="1.44"/>
       <circle id="connector1pin" r="1.98" fill="none" cx="4.32" cy="11.52" stroke="black"  stroke-width="1.44"/>
       <circle id="connector26pin" r="1.98" fill="none" cx="25.92" cy="11.52" stroke="black"  stroke-width="1.44"/>
       <circle id="connector2pin" r="1.98" fill="none" cx="4.32" cy="18.72" stroke="black"  stroke-width="1.44"/>
       <circle id="connector25pin" r="1.98" fill="none" cx="25.92" cy="18.72" stroke="black"  stroke-width="1.44"/>
       <circle id="connector3pin" r="1.98" fill="none" cx="4.32" cy="25.92" stroke="black"  stroke-width="1.44"/>
       <circle id="connector24pin" r="1.98" fill="none" cx="25.92" cy="25.92" stroke="black"  stroke-width="1.44"/>
       <circle id="connector4pin" r="1.98" fill="none" cx="4.32" cy="33.12" stroke="black"  stroke-width="1.44"/>
       <circle id="connector23pin" r="1.98" fill="none" cx="25.92" cy="33.12" stroke="black"  stroke-width="1.44"/>
       <circle id="connector5pin" r="1.98" fill="none" cx="4.32" cy="40.32" stroke="black"  stroke-width="1.44"/>
       <circle id="connector22pin" r="1.98" fill="none" cx="25.92" cy="40.32" stroke="black"  stroke-width="1.44"/>
       <circle id="connector6pin" r="1.98" fill="none" cx="4.32" cy="47.52" stroke="black"  stroke-width="1.44"/>
       <circle id="connector21pin" r="1.98" fill="none" cx="25.92" cy="47.52" stroke="black"  stroke-width="1.44"/>
       <circle id="connector7pin" r="1.98" fill="none" cx="4.32" cy="54.72" stroke="black"  stroke-width="1.44"/>
       <circle id="connector20pin" r="1.98" fill="none" cx="25.92" cy="54.72" stroke="black"  stroke-width="1.44"/>
       <circle id="connector8pin" r="1.98" fill="none" cx="4.32" cy="61.92" stroke="black"  stroke-width="1.44"/>
       <circle id="connector19pin" r="1.98" fill="none" cx="25.92" cy="61.92" stroke="black"  stroke-width="1.44"/>
       <circle id="connector9pin" r="1.98" fill="none" cx="4.32" cy="69.12" stroke="black"  stroke-width="1.44"/>
       <circle id="connector18pin" r="1.98" fill="none" cx="25.92" cy="69.12" stroke="black"  stroke-width="1.44"/>
       <circle id="connector10pin" r="1.98" fill="none" cx="4.32" cy="76.32" stroke="black"  stroke-width="1.44"/>
       <circle id="connector17pin" r="1.98" fill="none" cx="25.92" cy="76.32" stroke="black"  stroke-width="1.44"/>
       <circle id="connector11pin" r="1.98" fill="none" cx="4.32" cy="83.52" stroke="black"  stroke-width="1.44"/>
       <circle id="connector16pin" r="1.98" fill="none" cx="25.92" cy="83.52" stroke="black"  stroke-width="1.44"/>
       <circle id="connector12pin" r="1.98" fill="none" cx="4.32" cy="90.72" stroke="black"  stroke-width="1.44"/>
       <circle id="connector15pin" r="1.98" fill="none" cx="25.92" cy="90.72" stroke="black"  stroke-width="1.44"/>
       <circle id="connector13pin" r="1.98" fill="none" cx="4.32" cy="97.92" stroke="black"  stroke-width="1.44"/>
       <circle id="connector14pin" r="1.98" fill="none" cx="25.92" cy="97.92" stroke="black"  stroke-width="1.44"/>
      </g>
     </g>
    </g>
   </g>
  </g>
  <g partID="854374751">
   <g transform="translate(26.836,65.1822)">
    <g transform="matrix(-1,0,0,-1,0,0)">
     <g id="copper1" >
      <g id="copper0" >
       <rect id="square" width="4.176" fill="none" stroke="black" x="2.952"  stroke-width="1.44" y="2.952" height="4.176"/>
       <circle id="connector0pin" r="2.088" cx="5.04" fill="none" cy="5.04" stroke="black"  stroke-width="1.44"/>
       <circle id="connector1pin" r="2.088" cx="5.04" fill="none" cy="12.24" stroke="black"  stroke-width="1.44"/>
      </g>
     </g>
    </g>
   </g>
  </g>
  <g partID="854374891">
   <g transform="translate(50.596,44.3022)">
    <g transform="matrix(0,1,-1,0,0,0)">
     <g id="copper1" >
      <g id="copper0" >
       <rect width="4.464" fill="none" stroke="black" x="6.408"  stroke-width="1.44" y="12.168" height="4.464"/>
       <circle id="connector0pad" r="2.232" cx="8.64" fill="none" cy="14.4" stroke="black"  stroke-width="1.44"/>
       <circle id="connector1pad" r="2.232" cx="15.84" fill="none" cy="14.4" stroke="black"  stroke-width="1.44"/>
       <circle id="connector2pad" r="2.232" cx="23.04" fill="none" cy="14.4" stroke="black"  stroke-width="1.44"/>
      </g>
     </g>
    </g>
   </g>
  </g>
  <g partID="854378031">
   <g transform="translate(77.9504,24.2555)">
    <g id="copper1" >
     <circle id="connector1pin" r="1.84465" cx="22.5479" fill="none" cy="7.08448" stroke="black"  stroke-width="1.41732"/>
     <circle id="connector0pin" r="1.84252" cx="8.64567" fill="none" cy="7.08661" stroke="black"  stroke-width="1.41732"/>
    </g>
   </g>
  </g>
  <g partID="854378061">
   <g transform="translate(76.516,14.0622)">
    <g id="copper1" >
     <circle id="connector0pin" r="1.8" cx="2.88" fill="none" cy="2.88" stroke="black"  stroke-width="1.44"/>
     <circle id="connector1pin" r="1.8" cx="10.0933" fill="none" cy="2.88" stroke="black"  stroke-width="1.44"/>
    </g>
   </g>
  </g>
  <g partID="854378301">
   <g transform="translate(98.116,14.0622)">
    <g id="copper1" >
     <circle id="connector0pin" r="1.8" cx="2.88" fill="none" cy="2.88" stroke="black"  stroke-width="1.44"/>
     <circle id="connector1pin" r="1.8" cx="10.0933" fill="none" cy="2.88" stroke="black"  stroke-width="1.44"/>
    </g>
   </g>
  </g>
  <g partID="854380941">
   <g transform="translate(195.798,32.096)">
    <g transform="matrix(0,1,-1,0,0,0)">
     <g id="copper1" >
      <g id="copper0" >
       <circle id="connector0pad" r="1.98" cx="20.8462" fill="none" cy="15.6024" stroke="black"  stroke-width="1.44"/>
       <circle id="connector1pad" r="1.98" cx="2.42064" fill="none" cy="15.6024" stroke="black"  stroke-width="1.44"/>
       <circle id="connector2pad" r="1.98" cx="20.8462" fill="none" cy="2.84616" stroke="black"  stroke-width="1.44"/>
       <circle id="connector3pad" r="1.98" cx="2.42064" fill="none" cy="2.84616" stroke="black"  stroke-width="1.44"/>
      </g>
     </g>
    </g>
   </g>
  </g>
  <g partID="854381521">
   <g transform="translate(97.3424,87.355)">
    <g transform="matrix(0,1,-1,0,0,0)">
     <g id="copper1" >
      <circle id="connector1pad" r="1.7008" cx="8.7876" fill="none" cy="10.6336" stroke="black"  stroke-width="1.13384"/>
      <rect width="3.4016" fill="none" stroke="black" x="7.0868"  stroke-width="1.13384" y="8.9328" height="3.4016"/>
      <circle id="connector0pad" r="1.7008" cx="8.7876" fill="none" cy="3.5464" stroke="black"  stroke-width="1.13384"/>
     </g>
    </g>
   </g>
  </g>
  <g partID="854381641">
   <g transform="translate(105.496,93.0462)">
    <g id="copper1" >
     <!-- <rect width="55" x="10" y="15.5" fill="none" height="55" stroke="rgb(255, 191, 0)" stroke-width="20" />  -->
     <circle id="connector0pin" r="1.98" fill="none" cx="2.7" cy="3.096" stroke="black"  stroke-width="1.44"/>
     <circle id="connector1pin" r="1.98" fill="none" cx="31.5" cy="3.096" stroke="black"  stroke-width="1.44"/>
    </g>
   </g>
  </g>
  <g partID="854391651">
   <g transform="translate(212.092,28.6422)">
    <g transform="matrix(2.22045e-16,1,-1,2.22045e-16,0,0)">
     <g id="copper1" >
      <!-- <rect width="55" x="10" y="15.5" fill="none" height="55" stroke="rgb(255, 191, 0)" stroke-width="20" />  -->
      <circle id="connector0pin" r="1.98" fill="none" cx="2.7" cy="3.096" stroke="black"  stroke-width="1.44"/>
      <circle id="connector1pin" r="1.98" fill="none" cx="31.5" cy="3.096" stroke="black"  stroke-width="1.44"/>
     </g>
    </g>
   </g>
  </g>
  <g partID="854392791">
   <g transform="translate(203.144,3.89017)">
    <g id="copper1" >
     <circle id="nonconn0" r="4.25197" fill="black" cx="5.85197" cy="5.85197" stroke="black"  stroke-width="0"/>
    </g>
   </g>
  </g>
  <g partID="854392771">
   <g transform="translate(1.54402,3.89017)">
    <g id="copper1" >
     <circle id="nonconn0" r="4.25197" fill="black" cx="5.85197" cy="5.85197" stroke="black"  stroke-width="0"/>
    </g>
   </g>
  </g>
  <g partID="854392751">
   <g transform="translate(1.54402,104.69)">
    <g id="copper1" >
     <circle id="nonconn0" r="4.25197" fill="black" cx="5.85197" cy="5.85197" stroke="black"  stroke-width="0"/>
    </g>
   </g>
  </g>
  <g partID="854392721">
   <g transform="translate(203.144,104.69)">
    <g id="copper1" >
     <circle id="nonconn0" r="4.25197" fill="black" cx="5.85197" cy="5.85197" stroke="black"  stroke-width="0"/>
    </g>
   </g>
  </g>
  <g partID="854374990">
   <line y1="52.9422" stroke-linecap="round" y2="52.9422" stroke="black" x1="33.884" x2="23.964" stroke-width="1.728"/>
  </g>
  <g partID="854375060">
   <line y1="60.1422" stroke-linecap="round" y2="60.1422" stroke="black" x1="33.884" x2="23.964" stroke-width="1.728"/>
  </g>
  <g partID="854376870">
   <line y1="60.047" stroke-linecap="round" y2="60.1386" stroke="black" x1="93.8064" x2="38.508" stroke-width="1.728"/>
  </g>
  <g partID="854376160">
   <line y1="54.3901" stroke-linecap="round" y2="60.0467" stroke="black" x1="99.5307" x2="93.8064" stroke-width="1.728"/>
  </g>
  <g partID="854381760">
   <line y1="110.625" stroke-linecap="round" y2="88.9652" stroke="black" x1="151.403" x2="151.403" stroke-width="1.728"/>
  </g>
  <g partID="854378990">
   <line y1="81.6669" stroke-linecap="round" y2="110.625" stroke="black" x1="43.3414" x2="57.7026" stroke-width="1.728"/>
  </g>
  <g partID="854378840">
   <line y1="74.648" stroke-linecap="round" y2="74.6478" stroke="black" x1="21.923" x2="14.6225" stroke-width="1.728"/>
  </g>
  <g partID="854377880">
   <line y1="81.6669" stroke-linecap="round" y2="81.6669" stroke="black" x1="14.6191" x2="43.3414" stroke-width="1.728"/>
  </g>
  <g partID="854377730">
   <line y1="74.6478" stroke-linecap="round" y2="81.6669" stroke="black" x1="14.6225" x2="14.6191" stroke-width="1.728"/>
  </g>
  <g partID="854377580">
   <line y1="110.625" stroke-linecap="round" y2="110.625" stroke="black" x1="57.7026" x2="151.403" stroke-width="1.728"/>
  </g>
  <g partID="854377430">
   <line y1="88.9652" stroke-linecap="round" y2="67.3058" stroke="black" x1="151.403" x2="173.063" stroke-width="1.728"/>
  </g>
  <g partID="854377280">
   <line y1="67.3058" stroke-linecap="round" y2="67.3474" stroke="black" x1="173.063" x2="108.127" stroke-width="1.728"/>
  </g>
  <g partID="854377130">
   <line y1="67.3474" stroke-linecap="round" y2="72.4822" stroke="black" x1="108.127" x2="108.176" stroke-width="1.728"/>
  </g>
  <g partID="854376980">
   <line y1="61.7902" stroke-linecap="round" y2="74.648" stroke="black" x1="34.5745" x2="21.923" stroke-width="1.728"/>
  </g>
  <g partID="854378090">
   <line y1="33.276" stroke-linecap="round" y2="50.8822" stroke="black" x1="86.596" x2="86.596" stroke-width="1.728"/>
  </g>
  <g partID="854378230">
   <line y1="38.4255" stroke-linecap="round" y2="50.8822" stroke="black" x1="93.8064" x2="93.7974" stroke-width="1.728"/>
  </g>
  <g partID="854378160">
   <line y1="32.7475" stroke-linecap="round" y2="38.4255" stroke="black" x1="99.1691" x2="93.8066" stroke-width="1.728"/>
  </g>
  <g partID="854378440">
   <line y1="24.105" stroke-linecap="round" y2="29.9627" stroke="black" x1="79.4856" x2="85.2404" stroke-width="1.728"/>
  </g>
  <g partID="854378330">
   <line y1="18.822" stroke-linecap="round" y2="24.105" stroke="black" x1="79.4196" x2="79.4859" stroke-width="1.728"/>
  </g>
  <g partID="854378660">
   <line y1="24.105" stroke-linecap="round" y2="30.0078" stroke="black" x1="108.127" x2="101.903" stroke-width="1.728"/>
  </g>
  <g partID="854378550">
   <line y1="18.822" stroke-linecap="round" y2="24.105" stroke="black" x1="108.188" x2="108.127" stroke-width="1.728"/>
  </g>
  <g partID="854378770">
   <line y1="16.9422" stroke-linecap="round" y2="16.9422" stroke="black" x1="99.116" x2="88.4894" stroke-width="1.728"/>
  </g>
  <g partID="854379830">
   <line y1="38.4255" stroke-linecap="round" y2="51.4812" stroke="black" x1="115.428" x2="102.449" stroke-width="1.728"/>
  </g>
  <g partID="854379600">
   <line y1="9.78447" stroke-linecap="round" y2="38.4255" stroke="black" x1="115.428" x2="115.428" stroke-width="1.728"/>
  </g>
  <g partID="854379370">
   <line y1="9.78447" stroke-linecap="round" y2="9.78447" stroke="black" x1="101.107" x2="115.428" stroke-width="1.728"/>
  </g>
  <g partID="854379140">
   <line y1="15.0624" stroke-linecap="round" y2="9.7845" stroke="black" x1="101.025" x2="101.107" stroke-width="1.728"/>
  </g>
  <g partID="854381340">
   <line y1="66.7862" stroke-linecap="round" y2="54.3564" stroke="black" x1="93.5256" x2="106.698" stroke-width="1.728"/>
  </g>
  <g partID="854381250">
   <line y1="72.4834" stroke-linecap="round" y2="66.7858" stroke="black" x1="93.7242" x2="93.5256" stroke-width="1.728"/>
  </g>
  <g partID="854381410">
   <line y1="66.7862" stroke-linecap="round" y2="67.3201" stroke="black" x1="93.5256" x2="38.5078" stroke-width="1.728"/>
  </g>
  <g partID="854381570">
   <line y1="94.2083" stroke-linecap="round" y2="76.6021" stroke="black" x1="86.6987" x2="86.6068" stroke-width="1.728"/>
  </g>
  <g partID="854381670">
   <line y1="96.1422" stroke-linecap="round" y2="96.1422" stroke="black" x1="106.136" x2="95.7299" stroke-width="1.728"/>
  </g>
  <g partID="854382340">
   <line y1="103.289" stroke-linecap="round" y2="96.0281" stroke="black" x1="151.37" x2="144.105" stroke-width="1.728"/>
  </g>
  <g partID="854395250">
   <line y1="96.0281" stroke-linecap="round" y2="96.1091" stroke="black" x1="144.105" x2="139.056" stroke-width="1.728"/>
  </g>
  <g partID="854382030">
   <line y1="110.625" stroke-linecap="round" y2="103.289" stroke="black" x1="151.403" x2="151.37" stroke-width="1.728"/>
  </g>
  <g partID="854391960">
   <line y1="38.5422" stroke-linecap="round" y2="38.5422" stroke="black" x1="165.796" x2="151.396" stroke-width="1.728"/>
  </g>
  <g partID="854391890">
   <line y1="38.5422" stroke-linecap="round" y2="50.8822" stroke="black" x1="151.396" x2="151.396" stroke-width="1.728"/>
  </g>
  <g partID="854391820">
   <line y1="35.0712" stroke-linecap="round" y2="38.5422" stroke="black" x1="178.212" x2="165.796" stroke-width="1.728"/>
  </g>
  <g partID="854392030">
   <line y1="31.742" stroke-linecap="round" y2="34.1168" stroke="black" x1="206.975" x2="194.973" stroke-width="1.728"/>
  </g>
  <g partID="854392410">
   <line y1="67.3058" stroke-linecap="round" y2="61.594" stroke="black" x1="201.785" x2="207.535" stroke-width="1.728"/>
  </g>
  <g partID="854392100">
   <line y1="67.3058" stroke-linecap="round" y2="67.3058" stroke="black" x1="173.063" x2="201.785" stroke-width="1.728"/>
  </g>
 </g>
</svg>
